# xmcd CD database file
#
# Track frame offsets:
#	150
#	20750
#	44540
#	64730
#	88060
#	108385
#	134795
#	160055
#	175425
#	212515
#
# Disc length: 3075 seconds
#
# Revision: 0
# Processed by: cddbd v1.5.2PL0 Copyright (c) Steve Scherf et al.
# Submitted via: CDex 1.70beta2
#
DISCID=910c010a
DTITLE=Lord Vanger - Operatica: Shine
DYEAR=2002
DGENRE=New Age
TTITLE0=Lord Vanger - Solvejg's Song
TTITLE1=Lord Vanger - Mon Amour (A Rose Under The Desert Sky)
TTITLE2=Lord Vanger - Shine
TTITLE3=Lord Vanger - Kokab
TTITLE4=Lord Vanger - Standing On The Edge Of The World
TTITLE5=Lord Vanger - Lost In Someone Else's Dream
TTITLE6=Lord Vanger - Khodoya
TTITLE7=Lord Vanger - Je Crois Etendre Encore
TTITLE8=Lord Vanger - Passepied
TTITLE9=Lord Vanger - Under The Desert Sky
EXTD=YEAR: 2002
EXTT0=
EXTT1=
EXTT2=
EXTT3=
EXTT4=
EXTT5=
EXTT6=
EXTT7=
EXTT8=
EXTT9=
PLAYORDER=
